<?xml version="1.0" encoding="utf-8"?>
<!-- Generator: Adobe Illustrator 24.0.0, SVG Export Plug-In . SVG Version: 6.00 Build 0)  -->
<svg version="1.1" id="Layer_1" xmlns="http://www.w3.org/2000/svg" xmlns:xlink="http://www.w3.org/1999/xlink" x="0px" y="0px"
	 viewBox="0 0 19 19" style="enable-background:new 0 0 19 19;" xml:space="preserve">
<style type="text/css">
	.st0{fill-rule:evenodd;clip-rule:evenodd;fill:#6A6A6A;}
	.st1{filter:url(#Adobe_OpacityMaskFilter);}
	.st2{fill-rule:evenodd;clip-rule:evenodd;fill:#FFFFFF;}
	.st3{mask:url(#mask-2_1_);fill-rule:evenodd;clip-rule:evenodd;fill:#6A6A6A;}
</style>
<title>Thumbs down</title>
<g id="Video">
	<g id="Watch-Page-UI" transform="translate(-136.000000, -362.000000)">
		
			<g id="Thumbs-down" transform="translate(145.500000, 371.500000) rotate(180.000000) translate(-145.500000, -371.500000) translate(136.000000, 362.000000)">
			<path id="Fill-1" class="st0" d="M18.8,12.2c0-0.7-0.3-1.2-0.9-1.5c0.3-0.2,0.5-0.4,0.6-0.7c0.1-0.2,0.2-0.5,0.2-0.7
				c0.1-0.9-0.5-1.7-1.3-1.8l0,0c-0.6-0.1-1.8-0.4-5.3-0.1c0.2-0.5,1.6-2.4,1.6-4.5c0,0,0-0.2,0-0.2c0-1.2-0.4-2.5-1.9-2.7
				c-0.7-0.1-0.8,0.4-1,1.3c-0.1,0.3-0.2,0.8-0.3,1.3C10.4,3.5,7.9,6.3,6.2,8C5.4,8.7,4.8,9.3,4.5,9.6v8.5c0.9,0.1,3.9,0.5,6.6,0.6
				c0.6,0,1.1,0.1,1.6,0.1c0,0,0,0,0,0c0.1,0,2.2,0.1,3.6-0.3c0.6-0.2,1-0.7,1.1-1.3c0-0.3,0-0.5-0.1-0.7c0,0,0,0,0,0
				c0.7-0.2,1.2-0.7,1.3-1.5c0-0.5-0.1-0.9-0.4-1.3C18.5,13.4,18.8,12.8,18.8,12.2"/>
			<g id="Clip-4">
			</g>
			<defs>
				<filter id="Adobe_OpacityMaskFilter" filterUnits="userSpaceOnUse">
					<feColorMatrix  type="matrix" values="1 0 0 0 0  0 1 0 0 0  0 0 1 0 0  0 0 0 1 0"/>
				</filter>
			</defs>
			<mask maskUnits="userSpaceOnUse" id="mask-2_1_">
				<g class="st1">
					<polygon id="path-1_1_" class="st2" points="0,18.8 18.8,18.8 18.8,0 0,0 					"/>
				</g>
			</mask>
			<polygon id="Fill-3" class="st3" points="0,18.8 3.6,18.8 3.6,9 0,9 			"/>
		</g>
	</g>
</g>
</svg>
